<svg width="54" height="50" viewBox="0 0 54 50" fill="none" xmlns="http://www.w3.org/2000/svg">
<path d="M33.266 1.86936L45.5366 23.074C46.2057 24.2306 46.2057 25.6554 45.5366 26.812L33.266 48.0166C32.5968 49.1732 31.36 49.8856 30.0215 49.8856H37.2123C38.5508 49.8856 39.7876 49.1732 40.4568 48.0166L52.7274 26.812C53.3965 25.6554 53.3965 24.2306 52.7274 23.074L40.4568 1.86936C39.7876 0.712787 38.5506 0.000366211 37.2123 0.000366211H30.0215C31.36 0.000366211 32.5968 0.712787 33.266 1.86936Z" fill="#39435A"/>
<path d="M33.266 1.86936L33.8127 2.8142C34.742 2.82776 35.7073 2.90392 36.6924 3.0484C38.6527 3.33612 40.4599 3.86054 42.0038 4.54317L40.4565 1.86936C39.7876 0.712787 38.5508 0.000366211 37.2123 0.000366211H30.0215C31.36 0.000366211 32.5968 0.712787 33.266 1.86936Z" fill="#2C374C"/>
<path d="M19.4237 1.86936L31.6943 23.074C32.3635 24.2306 32.3635 25.6554 31.6943 26.812L19.4237 48.0166C18.7546 49.1732 17.5177 49.8856 16.1792 49.8856H23.37C24.7085 49.8856 25.9454 49.1732 26.6145 48.0166L38.8851 26.812C39.5542 25.6554 39.5542 24.2306 38.8851 23.074L26.6145 1.86936C25.9452 0.712787 24.7084 0.000366211 23.3698 0.000366211H16.1792C17.5176 0.000366211 18.7544 0.712787 19.4237 1.86936Z" fill="#39435A"/>
<path d="M19.9632 48.0162L7.69268 26.8116C7.0235 25.655 7.0235 24.2302 7.69268 23.0736L19.9632 1.86899C20.6324 0.712421 21.8692 0 23.2077 0H16.017C14.6784 0 13.4416 0.712421 12.7724 1.86899L0.501886 23.0736C-0.167295 24.2302 -0.167295 25.655 0.501886 26.8116L12.7724 48.0162C13.4416 49.1728 14.6784 49.8852 16.017 49.8852H23.2077C21.8692 49.8852 20.6324 49.1728 19.9632 48.0162Z" fill="#435F94"/>
<path d="M27.0526 48.0162L14.782 26.8116C14.1129 25.655 14.1129 24.2302 14.782 23.0736L27.0526 1.869C27.7218 0.712788 28.9586 0.000366211 30.2971 0.000366211H23.1063C21.7678 0.000366211 20.531 0.712787 19.8618 1.86936L7.59124 23.074C6.92206 24.2306 6.92206 25.6554 7.59124 26.812L19.8618 48.0166C20.531 49.1732 21.7678 49.8856 23.1063 49.8856H30.2971C28.9586 49.8852 27.7218 49.1728 27.0526 48.0162Z" fill="#377DFF"/>
<path d="M34.2789 48.0162L22.0084 26.8116C21.3392 25.655 21.3392 24.2302 22.0084 23.0736L34.2789 1.869C34.9481 0.712788 36.1849 0.000366211 37.5234 0.000366211H30.3326C28.9941 0.000366211 27.7573 0.712787 27.0881 1.86936L14.8176 23.074C14.1484 24.2306 14.1484 25.6554 14.8176 26.812L27.0881 48.0166C27.7573 49.1732 28.9941 49.8856 30.3326 49.8856H37.5234C36.1849 49.8852 34.9481 49.1728 34.2789 48.0162Z" fill="#37DBFF"/>
</svg>
